<?xml version="1.0" encoding="utf-8"?>
<!-- Generator: Adobe Illustrator 24.3.0, SVG Export Plug-In . SVG Version: 6.00 Build 0)  -->
<svg version="1.1" id="Layer_1" xmlns="http://www.w3.org/2000/svg" xmlns:xlink="http://www.w3.org/1999/xlink" x="0px" y="0px"
	 viewBox="0 0 50 50" style="enable-background:new 0 0 50 50;" xml:space="preserve">
<style type="text/css">
	.st0{fill:#7BC144;}
	.st1{fill:#F0B911;}
</style>
<path class="st0" d="M19.72,24.52c-1.64-0.73-3.41-0.9-5.17-1.14c-2.17-0.29-4.31-0.69-6.31-1.64c-2.37-1.12-3.92-2.9-4.34-5.55
	c-0.62-3.99,1.01-7.07,4.67-8.82c1.21-0.58,2.49-0.95,3.8-1.16c0.26-0.04,0.3-0.14,0.3-0.37c-0.01-1.57,0-3.14-0.01-4.71
	c0-0.31,0.05-0.42,0.39-0.42c1.4,0.02,2.79,0.02,4.19,0c0.3,0,0.37,0.09,0.36,0.37c-0.01,1.54,0,3.09-0.01,4.63
	c0,0.26,0.03,0.37,0.34,0.41c2.19,0.29,4.26,0.93,6.05,2.28c1.12,0.84,1.99,1.9,2.66,3.13c0.11,0.2,0.1,0.3-0.12,0.41
	c-1.32,0.66-2.63,1.34-3.95,2.02c-0.12,0.06-0.22,0.14-0.34-0.03c-1.03-1.46-2.51-2.26-4.18-2.74c-2.09-0.6-4.17-0.56-6.22,0.18
	c-1.18,0.43-2.11,1.18-2.47,2.46c-0.37,1.32,0.06,2.46,1.22,3.2c0.97,0.61,2.06,0.86,3.16,1.08c0.87,0.17,1.75,0.28,2.64,0.37
	c0.17,0.02,0.29,0.07,0.38,0.24c0.97,1.87,1.96,3.73,2.94,5.59C19.75,24.38,19.82,24.44,19.72,24.52z"/>
<path class="st1" d="M47.61,29.63c0,2.33-1.56,4.37-3.81,4.95c-2.31,0.6-4.66-0.41-5.79-2.5c-0.16-0.3-0.36-0.42-0.67-0.47
	c-1.85-0.31-3.4,0.32-4.74,1.54c-0.18,0.16-0.33,0.23-0.57,0.16c-5.28-1.51-10.56-3-15.84-4.51c-2.3-0.66-4.13-2-5.49-3.97
	c-0.09-0.14-0.24-0.27-0.11-0.46c0.13-0.19,0.32-0.11,0.48-0.07c4.61,0.94,9.22,1.9,13.83,2.84c4.07,0.84,8.14,1.66,12.2,2.51
	c0.26,0.05,0.27-0.01,0.29-0.23c0.21-2.47,1.76-4.29,4.04-4.77C44.61,23.95,47.6,26.36,47.61,29.63z M42.52,26.42
	c-1.79-0.01-3.24,1.43-3.25,3.2c0,1.78,1.45,3.24,3.22,3.24c1.76,0,3.21-1.44,3.23-3.19C45.73,27.89,44.29,26.43,42.52,26.42z
	 M28.69,29.93c0-0.56-0.45-1.01-1.01-1.01c-0.56,0-1.01,0.45-1.01,1.01c0,0.55,0.46,1.01,1.01,1.01
	C28.24,30.95,28.69,30.5,28.69,29.93z"/>
<path class="st0" d="M12.67,39.74c0-0.72,0-1.43,0-2.15c0-0.51,0-0.5-0.49-0.57c-1.59-0.21-3.12-0.6-4.56-1.32
	c-2.39-1.19-4.03-3.08-5.07-5.51C2.47,30,2.52,29.93,2.68,29.86c1.4-0.72,2.8-1.44,4.2-2.17c0.16-0.08,0.24-0.1,0.33,0.1
	c1.1,2.42,3.12,3.64,5.61,4.19c1.82,0.4,3.65,0.38,5.47-0.05c0.17-0.04,0.34-0.03,0.51,0.01c1.85,0.53,3.69,1.07,5.54,1.57
	c0.4,0.11,0.43,0.44,0.57,0.7c0.06,0.11-0.11,0.17-0.19,0.23c-1.43,1.17-3.09,1.86-4.88,2.28c-0.65,0.16-1.3,0.27-1.97,0.34
	c-0.23,0.03-0.27,0.1-0.27,0.32c0.01,1.57,0,3.14,0.01,4.71c0,0.26-0.04,0.36-0.33,0.36c-1.43-0.02-2.87-0.01-4.3,0
	c-0.24,0-0.32-0.05-0.31-0.3C12.68,41.35,12.67,40.54,12.67,39.74z"/>
<path class="st1" d="M30.18,39.22c-0.97-1.85-1.94-3.67-2.94-5.58c0.7,0.2,1.32,0.38,1.94,0.55c0.73,0.21,1.47,0.43,2.2,0.61
	c0.27,0.07,0.3,0.17,0.24,0.43c-0.29,1.22-0.15,2.4,0.43,3.52c0.12,0.24,0.28,0.36,0.55,0.42c2.46,0.49,4.12,2.64,4.06,5.23
	c-0.05,2.38-1.91,4.46-4.31,4.84c-2.58,0.41-5.07-1.21-5.75-3.73c-0.68-2.53,0.65-5.15,3.1-6.11
	C29.87,39.34,30.02,39.29,30.18,39.22z M31.56,47.4c1.78,0,3.23-1.45,3.22-3.23c-0.01-1.77-1.44-3.21-3.19-3.22
	c-1.78-0.01-3.24,1.43-3.24,3.21C28.35,45.95,29.79,47.4,31.56,47.4z"/>
<path class="st1" d="M27.74,26.04c-1.52-0.32-2.97-0.64-4.42-0.9c-0.5-0.09-0.74-0.32-0.97-0.75c-1.54-2.97-3.11-5.93-4.67-8.89
	c-0.08-0.16-0.23-0.32-0.08-0.5c0.15-0.19,0.34-0.07,0.51-0.01c2.27,0.77,4.05,2.16,5.33,4.19C24.86,21.43,26.27,23.7,27.74,26.04z"
	/>
</svg>
