<?xml version="1.0" encoding="utf-8"?>
<!-- Generator: Adobe Illustrator 24.3.0, SVG Export Plug-In . SVG Version: 6.00 Build 0)  -->
<svg version="1.1" id="Layer_1" xmlns="http://www.w3.org/2000/svg" xmlns:xlink="http://www.w3.org/1999/xlink" x="0px" y="0px"
	 viewBox="0 0 50 50" style="enable-background:new 0 0 50 50;" xml:space="preserve">
<style type="text/css">
	.st0{fill:#7BC144;}
	.st1{fill:#F0B911;}
	.st2{fill-rule:evenodd;clip-rule:evenodd;fill:#F0B911;}
</style>
<path class="st0" d="M10.73,48.91h0.46h2.87h23.78c2.98,0,5.4-2.42,5.4-5.4v-14c1.74-0.59,2.99-2.24,2.99-4.18v-0.71
	c0-1.93-1.25-3.58-2.99-4.18V6.32c0-2.98-2.42-5.4-5.4-5.4H14.06h-2.87h-0.46c-2.98,0-5.4,2.42-5.4,5.4v0.46v36.28v0.46
	C5.32,46.49,7.75,48.91,10.73,48.91z M45.2,24.63v0.71c0,1.87-1.51,3.38-3.38,3.38H33.3c-1.87,0-3.38-1.51-3.38-3.38v-0.71
	c0-1.87,1.51-3.38,3.38-3.38h8.52C43.68,21.25,45.2,22.77,45.2,24.63z M15.09,1.95h22.75c2.41,0,4.37,1.96,4.37,4.37v13.92
	c-0.13-0.01-0.26-0.02-0.39-0.02H33.3c-2.43,0-4.41,1.98-4.41,4.41v0.71c0,2.43,1.98,4.41,4.41,4.41h8.52
	c0.13,0,0.26-0.01,0.39-0.02v13.78c0,2.41-1.96,4.37-4.37,4.37H15.09V1.95z M6.36,6.77c0-2.67,2.16-4.83,4.83-4.83h2.87v45.94h-2.87
	c-2.67,0-4.83-2.16-4.83-4.83V6.77z"/>
<path class="st0" d="M34.28,22.46c-1.39,0-2.53,1.13-2.53,2.53c0,1.39,1.13,2.53,2.53,2.53c1.39,0,2.53-1.13,2.53-2.53
	C36.81,23.59,35.67,22.46,34.28,22.46z M34.28,26.48c-0.83,0-1.49-0.67-1.49-1.49c0-0.83,0.67-1.49,1.49-1.49
	c0.83,0,1.49,0.67,1.49,1.49C35.77,25.81,35.11,26.48,34.28,26.48z"/>
<path class="st1" d="M33.36,30.01c1.36,0,2.59,0.55,3.48,1.44c0.89,0.89,1.44,2.12,1.44,3.48c0,1.36-0.55,2.59-1.44,3.48
	c-0.89,0.89-2.12,1.44-3.48,1.44c-1.36,0-2.59-0.55-3.48-1.44c-0.89-0.89-1.44-2.12-1.44-3.48c0-1.36,0.55-2.59,1.44-3.48
	C30.77,30.56,32,30.01,33.36,30.01L33.36,30.01z M33.93,34.34c-0.15-0.15-0.35-0.24-0.57-0.24c-0.22,0-0.42,0.09-0.57,0.24
	c-0.15,0.15-0.24,0.35-0.24,0.57c0,0.13,0.03,0.25,0.09,0.36c0.03,0.07,0.08,0.13,0.13,0.18l-0.35,1.78c0,0.02-0.01,0.04-0.01,0.05
	c0,0.12,0.1,0.23,0.23,0.23h0.72h0.72c0.02,0,0.03,0,0.05,0c0.12-0.02,0.2-0.14,0.18-0.27l0,0l-0.35-1.79
	c0.05-0.06,0.09-0.12,0.13-0.18c0.05-0.11,0.09-0.23,0.09-0.36C34.17,34.69,34.08,34.48,33.93,34.34z"/>
<path class="st2" d="M29.58,32.01v-2.95c0-1.1,0.4-2.15,1.11-2.93c0.71-0.78,1.66-1.22,2.67-1.22c1,0,1.96,0.44,2.67,1.22
	s1.11,1.83,1.11,2.93v2.95c0,0.34-0.25,0.62-0.57,0.62c-0.31,0-0.57-0.28-0.57-0.62v-2.95c0-0.77-0.28-1.51-0.78-2.05
	c-0.5-0.55-1.16-0.85-1.87-0.85c-0.7,0-1.37,0.31-1.87,0.85c-0.5,0.55-0.78,1.28-0.78,2.05v2.95c0,0.34-0.25,0.62-0.57,0.62
	S29.58,32.36,29.58,32.01z"/>
<path class="st0" d="M34.31,22.47c-1.39,0-2.53,1.13-2.53,2.53c0,0.11,0.02,0.21,0.04,0.31c0.07-0.08,0.17-0.13,0.29-0.15
	c0.07-0.05,0.15-0.09,0.26-0.09c0.07-0.04,0.15-0.07,0.24-0.07c0.01,0,0.02,0,0.03,0.01c0.05-0.02,0.1-0.03,0.16-0.03
	c0.01-0.82,0.67-1.47,1.49-1.47c0.83,0,1.49,0.67,1.49,1.49s-0.67,1.49-1.49,1.49c-0.37,0-0.7-0.14-0.96-0.36
	c-0.05,0.01-0.09,0.03-0.15,0.03c-0.04,0-0.08-0.02-0.11-0.03c-0.04,0.01-0.08,0.03-0.13,0.03c0,0,0,0,0,0
	c-0.07,0.04-0.14,0.06-0.24,0.06c-0.01,0-0.02,0-0.03,0c-0.05,0.03-0.1,0.04-0.16,0.05c-0.06,0.04-0.13,0.06-0.21,0.07
	c-0.02,0.02-0.04,0.04-0.07,0.05c0.45,0.67,1.2,1.12,2.07,1.12c1.39,0,2.53-1.13,2.53-2.53S35.7,22.47,34.31,22.47z"/>
<path class="st0" d="M43.24,20.46V6.32c0-2.98-2.42-5.4-5.4-5.4H10.73c-2.98,0-5.4,2.42-5.4,5.4v37.2c0,2.98,2.42,5.4,5.4,5.4h27.11
	c2.98,0,5.4-2.42,5.4-5.4v-14c1.74-0.59,2.99-2.24,2.99-4.18v-0.71C46.23,22.7,44.98,21.05,43.24,20.46z M14.06,47.88h-2.87
	c-2.67,0-4.83-2.16-4.83-4.83V6.77c0-2.67,2.16-4.83,4.83-4.83h2.87V47.88z M45.2,25.34c0,1.87-1.51,3.38-3.38,3.38H33.3
	c-0.91,0-1.71-0.37-2.32-0.96c-0.01,0.06-0.03,0.11-0.06,0.16c-0.04,0.11-0.09,0.22-0.13,0.33c0.02-0.04,0.03-0.08,0.05-0.12
	c-0.06,0.14-0.12,0.29-0.14,0.45c0,0.02-0.02,0.03-0.03,0.04c0.02,0.07,0.02,0.15,0.02,0.23c0.73,0.55,1.63,0.89,2.61,0.89h8.52
	c0.13,0,0.26-0.01,0.39-0.02v13.78c0,2.41-1.96,4.37-4.37,4.37H15.09V1.95h22.75c2.41,0,4.37,1.96,4.37,4.37v13.92
	c-0.13-0.01-0.26-0.02-0.39-0.02H33.3c-2.43,0-4.41,1.98-4.41,4.41v0.71c0,0.98,0.34,1.87,0.88,2.6c0,0,0,0,0,0
	c0.06-0.21,0.17-0.39,0.27-0.58c0.01-0.1,0.05-0.2,0.11-0.28c0-0.01,0.01-0.02,0.01-0.03c0,0,0,0,0,0c0-0.11,0.04-0.2,0.1-0.28
	c-0.21-0.44-0.34-0.92-0.34-1.43v-0.71c0-1.87,1.51-3.38,3.38-3.38h8.52c1.87,0,3.38,1.51,3.38,3.38V25.34z"/>
<path class="st1" d="M29.68,28.12c0,0,0.29-1.07,0.65-1.53c0.36-0.46,0.37,0.39,0.37,0.39L29.68,28.12z"/>
<path class="st1" d="M30.72,29.01c0,0,0.04-1.02,0.44-1.54l-0.22-0.33l-0.62,1.14l0.16,0.73H30.72z"/>
<path class="st1" d="M31.57,25.41c0,0,0.61-0.41,1.45-0.48l0.05,0.29l0.61,0.96c0,0-0.95-0.09-1.57,0.33L31.57,25.41z"/>
</svg>
