<?xml version="1.0" encoding="utf-8"?>
<!-- Generator: Adobe Illustrator 24.3.0, SVG Export Plug-In . SVG Version: 6.00 Build 0)  -->
<svg version="1.1" id="Layer_1" xmlns="http://www.w3.org/2000/svg" xmlns:xlink="http://www.w3.org/1999/xlink" x="0px" y="0px"
	 viewBox="0 0 50 50" style="enable-background:new 0 0 50 50;" xml:space="preserve">
<style type="text/css">
	.st0{fill:#FEFEFE;}
	.st1{fill:#F1BB1A;}
	.st2{fill:#F0BA18;}
	.st3{fill:#FEFDFA;}
	.st4{fill:#7BC144;}
</style>
<path class="st1" d="M38.34,24.44c-0.05,7.97-5.99,13.97-13.42,13.94c-7.23-0.03-12.06-5.55-13.02-10.58
	c-0.87-4.58,0.25-8.6,3.43-12.01c1.85-1.99,4.13-3.29,6.79-3.83c4.59-0.92,8.66,0.2,12.08,3.41C36.97,17.98,38.25,21.28,38.34,24.44
	z M33.75,31.11c0,0.41,0,0.92,0,1.43c0,0.06-0.02,0.15,0.06,0.18c0.08,0.03,0.12-0.04,0.16-0.09c0.04-0.04,0.07-0.08,0.11-0.13
	c0.7-0.95,1.36-1.91,1.8-3.02c0.51-1.26,0.78-2.56,0.87-3.9c0.08-1.21-0.07-2.41-0.37-3.58c-0.18-0.72-0.4-1.45-0.75-2.09
	c-0.45-0.84-0.93-1.67-1.55-2.41c-0.68-0.82-1.41-1.55-2.28-2.15c-0.34-0.23-0.72-0.41-1.06-0.63c-0.25-0.17-0.52-0.29-0.79-0.41
	c-1.27-0.56-2.58-0.91-3.97-1.03c-2.22-0.19-4.3,0.22-6.31,1.19c-0.56,0.27-1.07,0.57-1.56,0.94c-0.61,0.47-1.25,0.92-1.75,1.52
	c-0.51,0.6-1.02,1.19-1.46,1.85c-0.29,0.43-0.48,0.9-0.69,1.37c-0.63,1.37-0.96,2.81-1.04,4.31c-0.11,2.02,0.35,3.93,1.15,5.78
	c0.4,0.91,1.03,1.65,1.61,2.42c0.04,0.05,0.09,0.13,0.16,0.1c0.12-0.04,0.08-0.15,0.08-0.23c0-0.65,0.01-1.31-0.01-1.96
	c-0.02-1.17,0.17-2.27,0.81-3.3c0.6-0.97,1.4-1.67,2.4-2.15c0.58-0.28,0.72-0.23,1.14,0.25c0.2,0.22,0.41,0.41,0.65,0.59
	c0.06,0.05,0.13,0.1,0.11,0.19c-0.02,0.11-0.11,0.09-0.19,0.09c-1.05,0.13-1.9,0.63-2.54,1.45c-0.23,0.29-0.47,0.59-0.59,0.97
	c-0.21,0.68-0.24,1.37-0.24,2.07c0,1.02-0.01,2.04-0.01,3.06c0,0.22-0.06,0.48,0.13,0.64c0.35,0.29,0.71,0.59,1.1,0.82
	c0.45,0.27,0.95,0.47,1.44,0.67c1.48,0.61,3.02,0.9,4.61,0.92c1.01,0.01,2-0.15,2.97-0.38c0.84-0.2,1.64-0.51,2.4-0.89
	c0.52-0.26,1.02-0.61,1.49-0.97c0.25-0.19,0.34-0.38,0.34-0.68c-0.01-1.2,0-2.39,0-3.59c0-0.65-0.03-1.28-0.36-1.89
	c-0.65-1.22-1.59-2.01-2.98-2.2c-0.08-0.01-0.17,0.01-0.21-0.08c-0.04-0.09,0.03-0.15,0.1-0.2c0.37-0.27,0.67-0.6,0.96-0.95
	c0.07-0.09,0.16-0.19,0.28-0.11c0.43,0.29,0.96,0.35,1.38,0.66c0.69,0.51,1.29,1.1,1.66,1.91c0.18,0.39,0.4,0.77,0.52,1.19
	C33.8,29.42,33.73,30.22,33.75,31.11z"/>
<path class="st1" d="M41.61,7.51c0.48-0.01,0.9,0.41,0.86,0.87c-0.05,0.54-0.15,1.07-0.24,1.6c-0.04,0.22-0.09,0.44-0.1,0.67
	c-0.01,0.24-0.07,0.47-0.21,0.67c-0.2,0.28-0.48,0.42-0.82,0.33c-0.32-0.08-0.51-0.31-0.59-0.64c-0.02-0.08,0.02-0.2-0.09-0.23
	c-0.13-0.04-0.17,0.09-0.23,0.16c-1,1-1.99,2-2.99,2.99c-0.36,0.36-0.64,0.37-1.02,0.1c-0.32-0.23-0.48-0.62-0.32-0.9
	c0.12-0.21,0.3-0.4,0.47-0.57c0.91-0.91,1.82-1.81,2.73-2.71c0.08-0.08,0.2-0.13,0.16-0.27c-0.04-0.11-0.15-0.07-0.23-0.08
	c-0.33-0.06-0.6-0.35-0.64-0.66c-0.04-0.32,0.16-0.7,0.46-0.83c0.12-0.05,0.26-0.09,0.39-0.11c0.75-0.13,1.51-0.25,2.26-0.37
	C41.5,7.51,41.57,7.51,41.61,7.51z"/>
<path class="st2" d="M38.92,37.84c0.36,0.44,0.89,0.89,1.28,1.46c0.05,0.07,0.1,0.17,0.21,0.15c0.14-0.02,0.1-0.16,0.12-0.25
	c0.15-0.57,0.45-0.78,0.93-0.66c0.3,0.07,0.5,0.25,0.56,0.56c0.16,0.91,0.25,1.83,0.33,2.74c0.04,0.44-0.4,0.85-0.84,0.79
	c-0.92-0.13-1.84-0.33-2.74-0.55c-0.34-0.08-0.55-0.47-0.51-0.85c0.04-0.34,0.32-0.61,0.67-0.65c0.08-0.01,0.2,0.04,0.24-0.07
	c0.04-0.1-0.06-0.16-0.12-0.22c-0.52-0.56-1.03-1.13-1.56-1.68c-0.48-0.52-0.93-1.07-1.43-1.57c-0.3-0.3-0.21-0.83,0.15-1.14
	c0.2-0.17,0.82-0.09,1.02,0.12C37.78,36.6,38.31,37.17,38.92,37.84z"/>
<path class="st2" d="M43.85,24.72c0.57,0.03,1.26-0.05,1.94,0.05c0.08,0.01,0.19,0.04,0.25-0.05c0.08-0.12-0.05-0.18-0.1-0.26
	c-0.31-0.5-0.27-0.86,0.15-1.13c0.26-0.17,0.53-0.2,0.79-0.02c0.77,0.5,1.51,1.06,2.24,1.62c0.35,0.27,0.35,0.87,0.01,1.15
	c-0.72,0.59-1.49,1.12-2.27,1.64c-0.29,0.2-0.72,0.09-0.97-0.21c-0.22-0.26-0.23-0.64-0.02-0.93c0.05-0.07,0.16-0.12,0.11-0.22
	c-0.05-0.1-0.16-0.07-0.24-0.07c-0.76,0-1.53-0.01-2.29,0c-0.71,0-1.41-0.05-2.12-0.01c-0.43,0.02-0.75-0.41-0.73-0.89
	c0.01-0.26,0.49-0.67,0.78-0.67C42.17,24.72,42.95,24.72,43.85,24.72z"/>
<path class="st2" d="M24.51,6.04c0.03-0.57-0.05-1.26,0.04-1.94c0.01-0.08,0.04-0.19-0.05-0.25c-0.12-0.08-0.18,0.05-0.26,0.1
	c-0.5,0.32-0.86,0.27-1.13-0.15c-0.17-0.26-0.2-0.53-0.03-0.79c0.5-0.77,1.05-1.51,1.62-2.24c0.27-0.35,0.87-0.35,1.15-0.01
	c0.59,0.72,1.12,1.49,1.64,2.26c0.2,0.29,0.09,0.72-0.2,0.97c-0.26,0.22-0.64,0.23-0.93,0.02c-0.07-0.05-0.12-0.16-0.22-0.11
	c-0.1,0.05-0.07,0.16-0.07,0.24c0,0.76,0,1.53,0,2.29c0.01,0.71-0.05,1.41-0.01,2.12c0.02,0.43-0.41,0.75-0.88,0.73
	c-0.26-0.01-0.67-0.49-0.67-0.78C24.51,7.73,24.51,6.94,24.51,6.04z"/>
<path class="st2" d="M11.09,12.25c-0.39-0.42-0.94-0.84-1.36-1.38c-0.05-0.07-0.11-0.16-0.21-0.14c-0.14,0.03-0.09,0.16-0.11,0.25
	c-0.12,0.58-0.4,0.8-0.89,0.71c-0.3-0.06-0.52-0.22-0.59-0.53c-0.21-0.9-0.35-1.81-0.48-2.72C7.39,8,7.8,7.56,8.24,7.6
	c0.93,0.08,1.85,0.23,2.77,0.4c0.35,0.06,0.58,0.44,0.56,0.82c-0.02,0.34-0.28,0.62-0.64,0.68c-0.08,0.01-0.2-0.03-0.23,0.09
	c-0.04,0.11,0.07,0.16,0.13,0.22c0.55,0.53,1.09,1.07,1.65,1.59c0.51,0.49,0.98,1.02,1.52,1.49c0.32,0.28,0.25,0.82-0.09,1.15
	c-0.19,0.18-0.82,0.14-1.03-0.06C12.3,13.42,11.74,12.88,11.09,12.25z"/>
<path class="st2" d="M6.01,26.28c-0.57-0.03-1.26,0.05-1.94-0.04c-0.08-0.01-0.19-0.04-0.25,0.05c-0.08,0.12,0.05,0.18,0.1,0.26
	c0.32,0.5,0.27,0.86-0.15,1.13c-0.26,0.17-0.53,0.2-0.79,0.03c-0.77-0.5-1.51-1.05-2.24-1.62c-0.35-0.27-0.35-0.87-0.01-1.15
	c0.72-0.59,1.49-1.12,2.26-1.64c0.29-0.2,0.72-0.09,0.97,0.2c0.22,0.26,0.23,0.64,0.02,0.93c-0.05,0.07-0.16,0.12-0.11,0.22
	c0.05,0.1,0.16,0.07,0.24,0.07c0.76,0,1.53,0,2.29,0c0.71-0.01,1.41,0.05,2.12,0.01c0.43-0.02,0.75,0.41,0.73,0.88
	c-0.01,0.26-0.49,0.67-0.78,0.67C7.7,26.28,6.91,26.28,6.01,26.28z"/>
<path class="st2" d="M26.06,43.87c-0.03,0.57,0.05,1.26-0.04,1.94c-0.01,0.08-0.04,0.19,0.05,0.25c0.12,0.08,0.18-0.05,0.26-0.1
	c0.5-0.32,0.86-0.27,1.13,0.15c0.17,0.26,0.2,0.53,0.03,0.79c-0.5,0.77-1.05,1.51-1.62,2.24c-0.27,0.35-0.87,0.35-1.15,0.01
	c-0.59-0.72-1.12-1.49-1.64-2.26c-0.2-0.29-0.09-0.72,0.2-0.97c0.26-0.22,0.64-0.23,0.93-0.02c0.07,0.05,0.12,0.16,0.22,0.11
	c0.1-0.05,0.07-0.16,0.07-0.24c0-0.76,0-1.53,0-2.29c-0.01-0.71,0.05-1.41,0.01-2.12c-0.02-0.43,0.41-0.75,0.88-0.73
	c0.26,0.01,0.67,0.49,0.67,0.78C26.06,42.19,26.06,42.97,26.06,43.87z"/>
<path class="st2" d="M12.2,38.93c-0.43,0.37-0.87,0.91-1.42,1.32c-0.07,0.05-0.17,0.11-0.15,0.21c0.03,0.14,0.16,0.09,0.25,0.12
	c0.57,0.14,0.79,0.43,0.68,0.91c-0.07,0.3-0.24,0.51-0.55,0.57c-0.9,0.18-1.82,0.3-2.73,0.4c-0.44,0.05-0.86-0.38-0.81-0.82
	c0.1-0.93,0.29-1.84,0.48-2.76c0.07-0.34,0.45-0.56,0.84-0.53c0.34,0.03,0.61,0.3,0.66,0.66c0.01,0.08-0.03,0.2,0.08,0.24
	c0.11,0.04,0.16-0.06,0.22-0.12c0.55-0.53,1.1-1.06,1.64-1.6c0.5-0.5,1.05-0.95,1.53-1.47c0.29-0.31,0.82-0.23,1.14,0.12
	c0.17,0.19,0.12,0.82-0.09,1.02C13.41,37.75,12.84,38.3,12.2,38.93z"/>
<path class="st3" d="M26.88,23.25c0.01-0.01,0.03-0.02,0.04-0.03c0.01,0.02,0.03,0.04,0.04,0.06c-0.02,0.01-0.04,0.02-0.05,0.02
	C26.9,23.29,26.89,23.26,26.88,23.25z"/>
<path class="st1" d="M24.99,16.62c-2.33-0.13-4.63,2.18-4.61,4.54c0.02,2.47,1.95,4.61,4.57,4.62c2.6,0.01,4.6-2.07,4.6-4.56
	C29.55,18.59,27.45,16.61,24.99,16.62z M24.98,24.33c-1.73,0-3.13-1.4-3.13-3.13s1.4-3.13,3.13-3.13c1.73,0,3.13,1.4,3.13,3.13
	S26.7,24.33,24.98,24.33z"/>
<path class="st1" d="M30.01,24.88c0,0,2.63,0.62,3.47,3.46l-0.57,3.76l-0.57-4.12l-2.32-2.98"/>
<path class="st4" d="M25.41,35.59c-0.27,0-0.54,0-0.81,0c0-0.07,0-0.13,0-0.2c0-0.11,0-0.22,0-0.33c0-0.08,0-0.16,0.01-0.24
	c0.01-0.08-0.03-0.11-0.1-0.1c-0.02,0-0.04,0-0.07,0c-0.09-0.02-0.17-0.04-0.26-0.05c-0.1-0.03-0.21-0.06-0.31-0.09
	c-0.12-0.05-0.23-0.1-0.35-0.14c-0.04-0.02-0.08-0.04-0.11-0.06c-0.07-0.05-0.14-0.09-0.22-0.14c-0.07-0.06-0.14-0.11-0.21-0.17
	c-0.04-0.04-0.08-0.08-0.12-0.12c-0.06-0.07-0.12-0.14-0.17-0.22c-0.05-0.07-0.09-0.14-0.14-0.21c-0.02-0.04-0.04-0.08-0.06-0.11
	c-0.04-0.11-0.09-0.22-0.13-0.33c-0.03-0.11-0.06-0.22-0.08-0.33c-0.02-0.06,0-0.08,0.06-0.08c0.06,0,0.12-0.01,0.19-0.02
	c0.11,0,0.22-0.01,0.33-0.03c0.11,0,0.22-0.01,0.33-0.03c0.11-0.01,0.22-0.02,0.33-0.03c0.04,0,0.07,0,0.11-0.01
	c0.08-0.02,0.11,0.01,0.13,0.09c0.04,0.16,0.11,0.31,0.22,0.44c0.05,0.09,0.12,0.16,0.2,0.23c0.04,0.05,0.09,0.09,0.15,0.12
	c0.08,0.06,0.17,0.11,0.26,0.15c0,0,0.01,0,0.01,0.01c0,0,0.01,0,0.01-0.01c0-0.06,0-0.11,0-0.17c0-0.11,0-0.22,0-0.33
	c0-0.11,0-0.22,0-0.33c0-0.11,0-0.22,0-0.33c0-0.11,0-0.22,0-0.33c0-0.11,0-0.22,0-0.33c0.01-0.18,0.02-0.14-0.1-0.16
	c-0.11-0.03-0.22-0.06-0.33-0.1c-0.22-0.08-0.43-0.17-0.63-0.27c-0.07-0.04-0.12-0.1-0.21-0.11c-0.01-0.01-0.01-0.03-0.02-0.03
	c-0.15-0.1-0.28-0.23-0.4-0.36c-0.01-0.01-0.02-0.02-0.03-0.04c-0.05-0.08-0.11-0.16-0.16-0.25c-0.11-0.21-0.18-0.42-0.21-0.66
	c0-0.11-0.01-0.22-0.01-0.33c0.01-0.11,0.02-0.22,0.04-0.33c0.01-0.02,0.02-0.04,0.02-0.07c0.03-0.09,0.06-0.17,0.09-0.26
	c0.06-0.11,0.13-0.22,0.2-0.33c0.01-0.02,0.03-0.03,0.04-0.05c0.09-0.1,0.19-0.19,0.28-0.28c0.02-0.01,0.03-0.02,0.04-0.03
	c0.1-0.07,0.21-0.13,0.31-0.2c0.07-0.03,0.14-0.06,0.2-0.1c0.04-0.01,0.07-0.03,0.11-0.04c0.12-0.03,0.23-0.07,0.35-0.1
	c0.11-0.02,0.22-0.03,0.33-0.05c0.08,0.01,0.12-0.01,0.1-0.1c0-0.02,0-0.03,0-0.05c0-0.09,0-0.19,0-0.28c0-0.04,0.01-0.05,0.05-0.05
	c0.24,0,0.48,0,0.71,0c0.04,0,0.05,0.01,0.05,0.05c0,0.09-0.01,0.19,0.01,0.28c-0.01,0.04-0.01,0.08,0,0.11
	c-0.01,0.02,0,0.03,0.02,0.02c0.13,0.02,0.25,0.04,0.38,0.06c0.11,0.03,0.22,0.06,0.33,0.09c0.06,0.02,0.11,0.04,0.17,0.06
	c0.05,0.03,0.11,0.05,0.16,0.08c0.1,0.06,0.21,0.13,0.31,0.19c0.02,0.02,0.04,0.03,0.06,0.05c0.11,0.1,0.22,0.21,0.31,0.33
	c0.06,0.11,0.13,0.22,0.19,0.33c0.03,0.08,0.06,0.15,0.09,0.23c0.01,0.03,0.02,0.06,0.03,0.1c0.01,0.03,0.01,0.06,0.02,0.09
	c0.01,0.03,0,0.04-0.03,0.04c-0.11,0.01-0.22,0.02-0.33,0.04c-0.11,0.01-0.22,0.03-0.33,0.04c-0.11,0-0.22,0.02-0.33,0.04
	c-0.11,0-0.22,0.02-0.33,0.03c-0.05,0.01-0.07-0.01-0.08-0.06c-0.02-0.08-0.05-0.16-0.09-0.22c-0.04-0.08-0.09-0.15-0.15-0.21
	c-0.04-0.05-0.09-0.09-0.14-0.12c-0.06-0.06-0.14-0.09-0.22-0.12c-0.03-0.02-0.04,0-0.04,0.03c0,0.14,0,0.28,0.01,0.42
	c-0.01,0.11-0.01,0.22,0,0.33c-0.01,0.11-0.01,0.22,0,0.33c-0.01,0.11-0.01,0.22,0,0.33c0,0.12,0,0.23-0.01,0.35
	c0,0.04,0.02,0.04,0.05,0.05c0.12,0.03,0.24,0.06,0.36,0.09c0.11,0.03,0.22,0.07,0.33,0.1c0.09,0.03,0.18,0.06,0.26,0.09
	c0.02,0.01,0.04,0.02,0.07,0.03c0.1,0.05,0.2,0.09,0.3,0.14c0.13,0.08,0.26,0.15,0.38,0.25c0.06,0.06,0.12,0.12,0.18,0.17
	c0.01,0.01,0.02,0.02,0.03,0.04l0,0c0.08,0.11,0.15,0.22,0.21,0.34c0.05,0.11,0.08,0.21,0.11,0.33c0.02,0.11,0.03,0.22,0.05,0.33
	c0,0.11-0.01,0.22-0.01,0.33c-0.02,0.11-0.04,0.22-0.06,0.33c-0.04,0.11-0.08,0.22-0.12,0.33c-0.03,0.06-0.07,0.12-0.1,0.18
	c-0.04,0.05-0.07,0.1-0.11,0.15c-0.07,0.08-0.13,0.15-0.2,0.23c-0.04,0.03-0.07,0.06-0.11,0.1c-0.07,0.06-0.15,0.11-0.22,0.17
	c-0.08,0.05-0.17,0.1-0.25,0.15c-0.03,0.01-0.05,0.02-0.08,0.04c-0.1,0.04-0.21,0.09-0.31,0.13c-0.12,0.03-0.23,0.06-0.35,0.09
	c-0.12,0.02-0.24,0.04-0.35,0.06c-0.03,0-0.05,0.01-0.05,0.05c0,0.11-0.01,0.21,0.01,0.32c-0.01,0.11-0.01,0.22,0,0.33
	C25.42,35.46,25.41,35.53,25.41,35.59z M24.5,28.71c-0.08,0.01-0.14,0.05-0.2,0.1c-0.05,0.02-0.1,0.05-0.13,0.1
	c-0.07,0.06-0.14,0.13-0.18,0.22c-0.07,0.1-0.11,0.22-0.1,0.34c-0.01,0.12,0.01,0.23,0.07,0.33c0.05,0.1,0.12,0.19,0.21,0.26
	c0.03,0.02,0.06,0.05,0.1,0.07c0.07,0.05,0.15,0.1,0.23,0.12c0.03,0.01,0.06,0.03,0.1,0.04c0-0.06,0-0.12,0-0.17
	c0-0.11,0-0.22,0-0.33c0-0.11,0-0.22,0-0.33c0-0.11,0-0.22,0-0.33c0-0.11,0-0.22,0-0.33c0-0.02,0-0.04,0-0.06
	c0.01-0.06,0-0.09-0.07-0.05C24.52,28.7,24.51,28.69,24.5,28.71z M25.46,31.85c-0.01-0.01-0.03-0.02-0.04,0c0,0.09-0.01,0.17,0,0.25
	c-0.01,0.11-0.01,0.22,0,0.33c-0.01,0.11-0.01,0.22,0,0.33c-0.01,0.11-0.01,0.22,0,0.33c-0.01,0.11-0.01,0.22,0,0.33
	c0,0.08,0,0.15,0,0.23c0.01,0.03,0.03,0.02,0.05,0.01c0.13-0.02,0.25-0.06,0.36-0.12c0.07-0.03,0.13-0.06,0.18-0.12
	c0.07-0.04,0.13-0.11,0.18-0.18c0.04-0.04,0.07-0.09,0.1-0.15c0.06-0.1,0.08-0.22,0.08-0.33c0-0.11-0.01-0.23-0.06-0.33
	c-0.03-0.1-0.09-0.18-0.16-0.25c-0.03-0.04-0.06-0.06-0.1-0.08c-0.07-0.06-0.15-0.1-0.23-0.13c-0.1-0.06-0.2-0.09-0.31-0.11
	C25.48,31.86,25.47,31.85,25.46,31.85z"/>
<path class="st0" d="M28.85,36.1c0-0.07,0-0.13,0-0.2c0,0,0,0,0,0c0.11,0,0.22,0,0.33,0c0,0.07,0,0.13,0,0.2
	C29.07,36.1,28.96,36.1,28.85,36.1z"/>
<path class="st0" d="M31.83,27.67c-0.01-0.01-0.01-0.01-0.02-0.02C31.83,27.65,31.83,27.66,31.83,27.67z"/>
<path class="st0" d="M18.32,27.66c-0.01,0.01-0.01,0.01-0.02,0.02C18.3,27.66,18.3,27.65,18.32,27.66z"/>
<path class="st0" d="M29.18,35.9c0-0.11,0-0.22,0-0.33c0,0,0,0,0,0c0.11,0,0.22,0,0.33,0c0,0.11,0,0.22,0,0.33c0,0,0,0,0,0
	C29.4,35.9,29.29,35.9,29.18,35.9z"/>
<path class="st0" d="M19.95,35.24c0,0.11,0,0.22,0,0.33c-0.11,0-0.22,0-0.33,0c0,0,0,0,0,0c0-0.11,0-0.22,0-0.33c0,0,0,0,0,0
	C19.73,35.24,19.84,35.24,19.95,35.24L19.95,35.24z"/>
<path class="st1" d="M33.19,27.58c0,0,0.63,1.08,0.56,2.78l0,2.63l-0.37-0.67L33.19,27.58z"/>
<polygon class="st1" points="28.75,36.21 29.79,35.81 30.55,36.21 28.75,36.81 "/>
</svg>
